HIERARCHY
ROOT Hips
{
 OFFSET 0.000000 0.000000 0.000000
 CHANNELS 6 Xposition Yposition Zposition Yrotation Xrotation Zrotation
 JOINT Chest
 {
  OFFSET 0.000000 9.585900 0.002600
  CHANNELS 3 Yrotation Xrotation Zrotation
  JOINT Chest2
  {
   OFFSET 0.000000 9.601200 -0.005300
   CHANNELS 3 Yrotation Xrotation Zrotation
   JOINT Chest3
   {
    OFFSET 0.000000 9.561800 0.000000
    CHANNELS 3 Yrotation Xrotation Zrotation
    JOINT Chest4
    {
     OFFSET 0.000000 9.552100 0.000000
     CHANNELS 3 Yrotation Xrotation Zrotation
     JOINT Neck
     {
      OFFSET 0.000000 14.453000 0.000000
      CHANNELS 3 Yrotation Xrotation Zrotation
      JOINT Head
      {
       OFFSET 0.000000 8.936500 -0.011300
       CHANNELS 3 Yrotation Xrotation Zrotation
       End Site
       {
        OFFSET 0.000000 17.073600 -0.006000
       }
      }
     }
     JOINT RightCollar
     {
      OFFSET -2.921100 9.558500 0.000000
      CHANNELS 3 Yrotation Xrotation Zrotation
      JOINT RightShoulder
      {
       OFFSET -13.519700 0.000000 0.000000
       CHANNELS 3 Yrotation Xrotation Zrotation
       JOINT RightElbow
       {
        OFFSET 0.000000 -29.696600 0.000000
        CHANNELS 3 Yrotation Xrotation Zrotation
        JOINT RightWrist
        {
         OFFSET 0.000000 -24.004700 0.000000
         CHANNELS 3 Yrotation Xrotation Zrotation
         End Site
         {
          OFFSET 0.000000 -17.728500 0.000000
         }
        }
       }
      }
     }
     JOINT LeftCollar
     {
      OFFSET 2.921100 9.558500 0.000000
      CHANNELS 3 Yrotation Xrotation Zrotation
      JOINT LeftShoulder
      {
       OFFSET 13.519700 0.000000 0.000000
       CHANNELS 3 Yrotation Xrotation Zrotation
       JOINT LeftElbow
       {
        OFFSET 0.000000 -29.696600 0.000000
        CHANNELS 3 Yrotation Xrotation Zrotation
        JOINT LeftWrist
        {
         OFFSET 0.000000 -24.004700 0.000000
         CHANNELS 3 Yrotation Xrotation Zrotation
         End Site
         {
          OFFSET 0.000000 -17.728500 0.000000
         }
        }
       }
      }
     }
    }
   }
  }
 }
 JOINT RightHip
 {
  OFFSET -7.771700 -0.012900 -0.001300
  CHANNELS 3 Yrotation Xrotation Zrotation
  JOINT RightKnee
  {
   OFFSET 0.000000 -40.869800 0.001200
   CHANNELS 3 Yrotation Xrotation Zrotation
   JOINT RightAnkle
   {
    OFFSET 0.000000 -39.717900 0.002100
    CHANNELS 3 Yrotation Xrotation Zrotation
    JOINT RightToe
    {
     OFFSET 0.000000 -4.965400 11.033500
     CHANNELS 3 Yrotation Xrotation Zrotation
     End Site
     {
      OFFSET 0.000000 -1.423100 5.872300
     }
    }
   }
  }
 }
 JOINT LeftHip
 {
  OFFSET 7.771700 -0.012900 -0.001300
  CHANNELS 3 Yrotation Xrotation Zrotation
  JOINT LeftKnee
  {
   OFFSET 0.000000 -40.869800 0.001200
   CHANNELS 3 Yrotation Xrotation Zrotation
   JOINT LeftAnkle
   {
    OFFSET 0.000000 -39.717900 0.002100
    CHANNELS 3 Yrotation Xrotation Zrotation
    JOINT LeftToe
    {
     OFFSET 0.000000 -4.965400 11.033500
     CHANNELS 3 Yrotation Xrotation Zrotation
     End Site
     {
      OFFSET 0.000000 -1.423100 5.872300
     }
    }
   }
  }
 }
}
MOTION
Frames: 5
Frame Time: 0.008333
0.000000 85.388000 0.000000 0.000000 -5.767877 0.000000 0.000000 11.653817 0.000000 0.000000 -5.885947 0.000000 0.000000 -0.000000 0.000000 0.000000 -0.000000 0.000000 0.000000 12.528835 0.000000 0.000000 0.711642 0.000000 0.000000 -0.000000 0.000000 0.000000 0.000000 -90.000000 0.000000 -2.309062 0.000000 0.000000 2.309062 0.000000 0.000000 -0.000000 0.000000 0.000000 -0.000000 90.000000 0.000000 -2.309062 0.000000 0.000000 2.309062 0.000000 0.000000 8.520406 0.000000 0.000000 1.905762 0.000000 -0.000000 -4.658285 0.000000 0.000000 -0.000000 0.000000 0.000000 8.520406 0.000000 0.000000 1.905762 0.000000 -0.000000 -4.658285 0.000000 0.000000 -0.000000 0.000000
-18.709022 62.058152 12.248210 173.941557 -50.732099 -0.494670 4.514215 26.294625 2.232514 0.646251 4.381348 0.335975 0.976598 6.996545 0.518266 3.408772 21.405703 2.106878 5.132827 14.843743 4.774002 7.820851 -8.310270 7.014396 6.643097 4.627019 4.261192 -9.511411 -18.990296 -14.664843 -92.249615 -54.332426 130.398967 -4.364140 -5.090799 -12.749621 -8.676412 1.706752 1.306800 3.930719 -13.775998 12.248825 115.137962 -70.989138 -136.788726 21.975704 -11.470069 6.184373 2.347306 -16.530292 -4.647265 -1.835085 60.805330 -4.989554 2.163509 -6.380603 10.399410 0.221340 -0.400673 0.089327 -2.996930 -13.271633 3.757346 27.743231 76.822234 28.478928 1.492810 -11.765428 -4.017750 0.118433 0.606978 0.030955
-18.702641 62.054639 12.248594 173.899367 -50.669868 -0.514922 4.518504 26.259539 2.236018 0.664855 4.366505 0.348684 0.950551 7.004154 0.503133 3.415712 21.397738 2.105807 5.111378 14.898923 4.772578 7.814126 -8.214041 7.015927 6.561353 4.636169 4.216327 -9.389499 -18.632052 -14.701358 -91.962674 -54.224009 130.400726 -4.320767 -4.964744 -12.438540 -8.720676 1.675291 1.246817 3.664040 -13.454611 12.356863 115.269250 -70.973472 -137.058784 21.655993 -11.225285 5.673889 2.363202 -16.597694 -4.595967 -1.850061 60.800813 -4.986350 2.163975 -6.377537 10.386948 0.223736 -0.397844 0.090353 -2.989663 -13.333334 3.815544 27.760875 76.835974 28.499152 1.510577 -11.778254 -4.019706 0.106571 0.608735 0.027470
-18.700568 62.054221 12.244751 173.894327 -50.626966 -0.537008 4.510613 26.229900 2.237001 0.607477 4.397154 0.310142 0.983499 6.978217 0.521146 3.456960 21.381959 2.120020 5.055690 14.961776 4.768483 7.807159 -8.113189 7.016324 6.452143 4.644360 4.170154 -9.269473 -18.274691 -14.739637 -91.736889 -54.144049 130.437416 -4.280447 -4.829185 -12.135527 -8.793616 1.647671 1.189563 3.424543 -13.126038 12.450072 115.758413 -71.012206 -137.645927 21.301397 -10.966602 5.139218 2.358055 -16.640325 -4.578989 -1.892528 60.800004 -5.003604 2.180117 -6.385079 10.374771 0.232932 -0.401154 0.090830 -3.000106 -13.376766 3.844789 27.783724 76.844125 28.517494 1.526036 -11.775541 -4.021798 0.107539 0.600667 0.029530
-18.696422 62.054755 12.239145 173.877952 -50.588776 -0.562010 4.515946 26.203923 2.251113 0.617405 4.388988 0.317162 0.944774 6.988806 0.499831 3.442632 21.379725 2.111662 5.051427 15.013827 4.764771 7.797961 -8.007675 7.015903 6.394503 4.635423 4.124911 -9.129915 -17.918468 -14.780348 -91.579494 -54.094147 130.499317 -4.243672 -4.693398 -11.823436 -8.810750 1.609245 1.143076 3.230578 -12.797023 12.526947 116.560772 -71.093144 -138.525699 20.919745 -10.695725 4.595750 2.354069 -16.675316 -4.543751 -1.895851 60.795957 -4.999633 2.180477 -6.395183 10.390602 0.229405 -0.410495 0.078610 -3.001805 -13.414264 3.886369 27.784688 76.865999 28.519543 1.548614 -11.785455 -4.027636 0.114907 0.595288 0.033492
